<svg id="圖層_1" data-name="圖層 1" xmlns="http://www.w3.org/2000/svg" viewBox="0 0 545.98 193.19"><defs><style>.cls-1{fill:#231815;}.cls-2{fill:#a42025;}.cls-3{fill:#071f38;}</style></defs><path class="cls-1" d="M218.11,187.71a13.51,13.51,0,0,1-1.75,4.66,1,1,0,0,1-1.37.32.91.91,0,0,1-.39-1.54,13.46,13.46,0,0,0,1.45-3.68c.17-.78.61-1.1,1.34-.95A.87.87,0,0,1,218.11,187.71Zm.74-23.16,8.64-.45a1.89,1.89,0,0,1,1.49.48,1.83,1.83,0,0,1,.51,1.48l-.39,7.41a2.25,2.25,0,0,1-.66,1.54,2.36,2.36,0,0,1-1.56.65l-3.09.16-.09,1.85,4.12-.22q1.17-.06,1.11,1.11a1.14,1.14,0,0,1-1.23,1.19l-4.12.21-.11,2,2.23-.22,2.35-.24a.9.9,0,0,1,1.13,1.14,1.29,1.29,0,0,1-1.29,1.25L216,185.19a.94.94,0,0,1-.85-.21,1.54,1.54,0,0,1-.22-1,1.57,1.57,0,0,1,.28-1,1.26,1.26,0,0,1,.89-.38c1.27-.13,2.84-.27,4.74-.43l.11-2.11-4,.21c-.78,0-1.15-.32-1.11-1.07a1.16,1.16,0,0,1,1.23-1.22l4-.21.1-1.85-2.9.15a1.92,1.92,0,0,1-1.5-.49,1.78,1.78,0,0,1-.5-1.48l.38-7.41a2.26,2.26,0,0,1,.67-1.54A2.33,2.33,0,0,1,218.85,164.55Zm2.75,9.31.39-7.41-2.33.12a.78.78,0,0,0-.8.83l-.3,5.84c0,.52.21.77.71.75Zm-1.91-1.81a13.59,13.59,0,0,0-.49-3.32.68.68,0,0,1,.55-.88c.45-.13.72,0,.83.37a22.17,22.17,0,0,1,.63,3.57c0,.33-.21.58-.64.75C220,172.74,219.68,172.58,219.69,172.05Zm-.27,18.78c0-.77-.08-2-.24-3.62a.87.87,0,0,1,.84-1.11c.59-.09.93.12,1,.64a21.1,21.1,0,0,1,.33,3.9.93.93,0,0,1-.9,1C219.76,191.74,219.41,191.48,219.42,190.83Zm3.78-.63a27.63,27.63,0,0,0-.77-3.28q-.33-1,.72-1.2a.77.77,0,0,1,1,.51,20.27,20.27,0,0,1,.91,3.59c.08.53-.18.88-.78,1S223.27,190.82,223.2,190.2Zm.68-23.85-.39,7.42,2.49-.13a.79.79,0,0,0,.83-.83l.31-5.84c0-.53-.23-.77-.75-.75Zm2.08,4.06c-.07.21-.19.52-.35.91s-.27.68-.34.85a.58.58,0,0,1-.83.32c-.41-.14-.54-.39-.37-.73.39-1.15.76-2.32,1.09-3.53.16-.62.52-.83,1.08-.65s.66.52.44,1.07c-.07.19-.19.48-.36.88S226,170.22,226,170.41Zm.56,17.48c-.47-.95-.74-1.48-.8-1.58-.36-.61-.19-1.06.52-1.35a.91.91,0,0,1,1.21.28,18.73,18.73,0,0,1,1.71,3.33c.16.53-.07.94-.67,1.22-.75.34-1.21.18-1.39-.46A9.19,9.19,0,0,0,226.52,187.89Zm13.66,2.52-8.41.43a1.8,1.8,0,0,1-1.48-.5,1.89,1.89,0,0,1-.49-1.49l.46-8.83a2.33,2.33,0,0,1,.65-1.55,2.21,2.21,0,0,1,1.54-.66l2.33-.12.72-13.64a1.42,1.42,0,0,1,1.52-1.49c.95,0,1.39.4,1.35,1.34l-.29,5.38,5.14-.27c.92,0,1.36.38,1.31,1.31a1.37,1.37,0,0,1-1.46,1.45l-5.13.27-.29,5.5,3.21-.17a1.77,1.77,0,0,1,2,2l-.46,8.83a2.23,2.23,0,0,1-.66,1.55A2.33,2.33,0,0,1,240.18,190.41ZM233.3,188l5.54-.29a.78.78,0,0,0,.83-.83l.32-6c0-.52-.23-.77-.75-.74l-5.54.29a.77.77,0,0,0-.8.82l-.32,6C232.56,187.82,232.79,188.07,233.3,188Z"/><path class="cls-1" d="M278.28,165.48l-25.48,1.33c-.84.05-1.24-.35-1.19-1.19a1.25,1.25,0,0,1,1.32-1.32l11.06-.58.06-1.16a1.53,1.53,0,0,1,1.62-1.62c1-.05,1.52.43,1.47,1.46l-.07,1.16,11.34-.59c.82,0,1.21.35,1.17,1.19A1.24,1.24,0,0,1,278.28,165.48Zm-18.88,21.6a13.2,13.2,0,0,1-6.51,3.76c-1.19.31-2,.13-2.36-.54a.94.94,0,0,1,.29-1.36,5.3,5.3,0,0,1,2-.92,8.86,8.86,0,0,0,4.08-2.44,8.47,8.47,0,0,0,1.72-3.94,1.82,1.82,0,0,1,1.79-1.72,1.14,1.14,0,0,1,1.1.44,1.92,1.92,0,0,1,.22,1.34A11.3,11.3,0,0,1,259.4,187.08Zm-6.08-10.33,23.31-1.22a1.86,1.86,0,0,1,1.48.5,1.91,1.91,0,0,1,.48,1.5l-.14,2.76a1.34,1.34,0,0,1-1.43,1.42c-.92,0-1.36-.37-1.31-1.28l.09-1.75c0-.51-.21-.74-.71-.72L254.52,179a.75.75,0,0,0-.8.79l-.09,1.79a1.32,1.32,0,0,1-1.4,1.39c-.88,0-1.3-.37-1.25-1.25l.15-2.8a2.3,2.3,0,0,1,.64-1.55A2.23,2.23,0,0,1,253.32,176.75Zm19.49-2.68-15.34.8a1.85,1.85,0,0,1-1.49-.5,1.93,1.93,0,0,1-.48-1.49l.13-2.49a2.26,2.26,0,0,1,.64-1.53,2.29,2.29,0,0,1,1.54-.65l15.34-.8a1.87,1.87,0,0,1,1.49.49,1.84,1.84,0,0,1,.49,1.47l-.13,2.49a2.33,2.33,0,0,1-.65,1.55A2.21,2.21,0,0,1,272.81,174.07Zm-13.57-1.33,11.85-.62a.75.75,0,0,0,.82-.79l.06-1.07c0-.52-.22-.77-.75-.74l-11.84.62a.77.77,0,0,0-.83.82l-.06,1.07C258.47,172.53,258.72,172.77,259.24,172.74Zm15.5,17.14-4.5.24c-1.64.08-2.73-.12-3.27-.61s-.77-1.46-.7-2.88l.28-5.31a1.61,1.61,0,0,1,1.72-1.69c1.07,0,1.58.45,1.53,1.52l-.28,5.28c0,.46,0,.75.21.88a2,2,0,0,0,1.15.14l3.69-.19a1.07,1.07,0,0,0,1-.58,4.54,4.54,0,0,1,.76-2,1.15,1.15,0,0,1,2.13.55,4.89,4.89,0,0,1,0,1.66,4.31,4.31,0,0,1-1.24,2.28A4.1,4.1,0,0,1,274.74,189.88Z"/><path class="cls-1" d="M292.68,167.36l-1.07,20.33a1.4,1.4,0,0,1-1.49,1.48c-.94.05-1.39-.39-1.34-1.34l.83-15.89a22.11,22.11,0,0,1-1.41,1.83c-.52.59-1,.88-1.34.88s-.71-.31-1-.92a1.88,1.88,0,0,1-.27-1.16,2.19,2.19,0,0,1,.64-1.11,40.7,40.7,0,0,0,6.64-10.34,1.51,1.51,0,0,1,1.91-1.07q1.46.36.81,1.8A56.6,56.6,0,0,1,292.68,167.36Zm8.28-2.22,12.35-.64a1.71,1.71,0,0,1,1.53.56,2,2,0,0,1,.24,1.73c-.18.9-.51,2.27-1,4.09a1.06,1.06,0,0,1-.49.76,1.78,1.78,0,0,1-1,.07c-.88-.12-1.22-.55-1-1.29.25-1.17.44-2.2.57-3.1l-5.17.27-.91,17.31a3.31,3.31,0,0,1-1.44,3,6.63,6.63,0,0,1-1.7.61,4.3,4.3,0,0,1-1.92,0,1.42,1.42,0,0,1-1.17-1,1.17,1.17,0,0,1,.26-1.38,2.79,2.79,0,0,1,1.69-.48,4,4,0,0,0,.44,0l.29,0a.54.54,0,0,0,.59-.56l.91-17.31-4.32.23a36.05,36.05,0,0,1-2.35,4.1c-.63.91-1.34,1.05-2.12.42a1.71,1.71,0,0,1-.69-1,1.74,1.74,0,0,1,.49-1.17,33.4,33.4,0,0,0,4.48-9.41,1.56,1.56,0,0,1,1.89-1.29c1,.18,1.31.76,1,1.73C302.14,162.16,301.66,163.41,301,165.14Zm0,10a36.43,36.43,0,0,1-3.73,8.34,1.39,1.39,0,0,1-2.07.51c-.84-.46-.95-1.13-.34-2a29.48,29.48,0,0,0,3.3-7.22,1.57,1.57,0,0,1,1.87-1.35C300.92,173.51,301.25,174.09,300.94,175.11Zm10.31,7.2a38.37,38.37,0,0,0-2.27-7.75c-.35-.88,0-1.5.95-1.87a1.17,1.17,0,0,1,1.69.67,37.14,37.14,0,0,1,2.59,8.16,1.27,1.27,0,0,1-.18,1,2,2,0,0,1-.94.62,1.77,1.77,0,0,1-1.28.17C311.49,183.18,311.3,182.85,311.25,182.31Z"/><path class="cls-1" d="M340.94,162.08l7.15-.37a1.45,1.45,0,0,1,1.49.83,6.82,6.82,0,0,1,.27,3.28q-.81,9.52-1.43,13.4c-.4,2.58-.92,4.24-1.54,5a4.44,4.44,0,0,1-1.55,1.31,5.29,5.29,0,0,1-2,.49c-.72.05-1.6.09-2.63.12s-1.64-.35-1.86-1.09a1.11,1.11,0,0,1,.34-1.34,3.18,3.18,0,0,1,1.77-.4c.61,0,1.31,0,2.11-.08a1.76,1.76,0,0,0,1.35-.6c.51-.53,1-2,1.34-4.46s.83-6.5,1.32-12.16a2.64,2.64,0,0,0-.07-1.19.5.5,0,0,0-.55-.28l-6.77.35a37,37,0,0,1-2,3.71,2.08,2.08,0,0,1-1.3,1,2,2,0,0,1-1.62-.37,1.4,1.4,0,0,0-.22-.16l-.26-.16-.67,12.69a2.21,2.21,0,0,1-.66,1.54,2.36,2.36,0,0,1-1.56.65l-7.18.37a2,2,0,0,1-1.5-.48,1.86,1.86,0,0,1-.5-1.48l.89-16.9a2.21,2.21,0,0,1,.66-1.54,2.36,2.36,0,0,1,1.55-.65l1.49-.07a37.68,37.68,0,0,0,1-3.69,1.93,1.93,0,0,1,.64-1.16,1.71,1.71,0,0,1,1.25-.26c1.11.13,1.43.8,1,2-.15.4-.37,1-.67,1.66l-.56,1.32,3-.16a2,2,0,0,1,1.5.48,1.86,1.86,0,0,1,.5,1.48l-.21,4a31.44,31.44,0,0,0,4.86-10,1.49,1.49,0,0,1,1.86-1.29c1,.16,1.28.72,1,1.7S341.37,160.91,340.94,162.08Zm-15.46,9.65,5.95-.32.28-5.34c0-.5-.22-.74-.75-.71l-4.37.23a.76.76,0,0,0-.83.79Zm5.81,2.29-6,.31-.33,6.35c0,.5.22.74.75.71l4.38-.23a.76.76,0,0,0,.82-.79Zm9.81,2.84a46.61,46.61,0,0,0-2.94-4.92c-.47-.73-.28-1.33.56-1.82s1.34-.34,1.75.23c1.35,1.89,2.45,3.59,3.32,5.09a1.18,1.18,0,0,1,.07,1,2.27,2.27,0,0,1-.82.77,1.9,1.9,0,0,1-1.16.42C341.57,177.55,341.31,177.31,341.1,176.86Z"/><path class="cls-1" d="M359.16,157.43l7.69-.4a1.37,1.37,0,0,1,1.58,1.58v.09l3.53-.18.09-1.73a1.27,1.27,0,0,1,1.36-1.32c.84-.05,1.24.35,1.19,1.19l-.09,1.73,2.59-.14c.75,0,1.11.32,1.07,1.07a1.14,1.14,0,0,1-1.19,1.22l-7.44.39a1.13,1.13,0,0,1-.92-.29,1.17,1.17,0,0,1-.3-.93v-.09l-1.38.07L365.65,184a1.25,1.25,0,0,1-1.32,1.33c-.84,0-1.24-.36-1.2-1.19l.24-4.56c-3.06.81-4.91,1.29-5.57,1.45a1,1,0,0,1-1.46-1,1.35,1.35,0,0,1,1.19-1.66c.15,0,.35-.1.61-.16l.94-18.09H359c-.88.05-1.3-.38-1.25-1.28A1.31,1.31,0,0,1,359.16,157.43Zm2.41,2.54-.21,4.08,2.83-.14.22-4.09Zm-.34,6.53-.21,4.09,2.83-.15.22-4.08Zm-.34,6.57-.24,4.55,2.86-.68.21-4Zm17.81-5.54-10.42.55c-.8,0-1.18-.34-1.14-1.13a1.2,1.2,0,0,1,1.26-1.26l1.33-.07a17.49,17.49,0,0,0-.4-3.14c-.2-.68.08-1.12.82-1.33a.83.83,0,0,1,1.16.63,13.72,13.72,0,0,1,.4,2,1.54,1.54,0,0,1-.31,1.12,2,2,0,0,1-1.07.68l-.1,0,5.1-.27-.9-.17c-.45-.13-.62-.39-.49-.79.36-1.23.59-2.08.7-2.54a1.14,1.14,0,0,1,1.4-1c.79.11,1,.61.71,1.5-.57,1.55-.94,2.56-1.13,3l3.08-.16c0-1.94.12-4.82.24-8.62a1.34,1.34,0,0,1,1.39-1.46c.86,0,1.27.39,1.22,1.29q-.21,4.11-.3,8.66l3.91-.2c.8,0,1.18.33,1.14,1.13A1.19,1.19,0,0,1,385,167.2l-3.82.2q0,3.36.17,5.91c.42-.92.87-2.05,1.34-3.39a1.29,1.29,0,0,1,1.59-1c.79.15,1,.67.77,1.56a34.66,34.66,0,0,1-3.39,7c.28,2.29.69,3.41,1.24,3.38.25,0,.49-.51.71-1.51a4.31,4.31,0,0,1,.64-1.78.67.67,0,0,1,1.12-.12c.38.31.45,1,.2,2.21-.75,3.11-1.74,4.67-3,4.7q-2.1.08-3.06-4a26.7,26.7,0,0,1-3.61,3.6c-.78.57-1.42.56-1.91,0s-.4-1.36.51-2a13.76,13.76,0,0,0,1.64-1.4l-6.23.32a1.81,1.81,0,0,1-1.49-.5,1.89,1.89,0,0,1-.48-1.49l.36-7a2.36,2.36,0,0,1,.65-1.55,2.21,2.21,0,0,1,1.54-.66l4.41-.23a1.82,1.82,0,0,1,1.48.5,1.92,1.92,0,0,1,.49,1.5l-.46,8.82a23.17,23.17,0,0,0,2.61-3.08A85.64,85.64,0,0,1,378.7,167.53Zm-8.17,6.66,3.94-.2.09-1.6q0-.79-.72-.75l-2.39.13a.77.77,0,0,0-.83.82Zm3.84,1.81-3.94.21-.09,1.72c0,.51.22.74.75.72l3.15-.17Zm8.95-16.13c-.08-.12-.18-.3-.31-.53a7.32,7.32,0,0,0-.36-.64c-.11-.2-.22-.37-.31-.54-.47-.6-.32-1.12.46-1.55a1,1,0,0,1,1.43.2,17.16,17.16,0,0,1,2.11,3.46c.22.54,0,1-.67,1.42s-1.34.34-1.61-.36C384,161.13,383.72,160.64,383.32,159.87Z"/><path class="cls-1" d="M395.94,173.4l.5-9.58-2.11.11c-.95,0-1.39-.4-1.34-1.34a1.41,1.41,0,0,1,1.49-1.49l2.11-.11.27-5.12a1.36,1.36,0,0,1,1.45-1.45c.93,0,1.37.38,1.32,1.31l-.27,5.12,1.76-.1c.95-.05,1.4.4,1.35,1.34a1.41,1.41,0,0,1-1.49,1.49l-1.77.09-.44,8.36,1.55-.77c1-.47,1.6-.22,1.75.75a1.52,1.52,0,0,1-.87,1.74L398.87,175l-2.65,1.42-2.13,1.15c-.95.49-1.59.23-1.91-.78a1.46,1.46,0,0,1,.86-2C393.21,174.7,394.18,174.24,395.94,173.4Zm7.07-6.61,17.42-.9c.83,0,1.23.34,1.19,1.15a1.27,1.27,0,0,1-1.33,1.36l-11.65.61a12.58,12.58,0,0,1-1.27,2l11.22-.59a1.43,1.43,0,0,1,1.49.77,5.43,5.43,0,0,1,.13,3c-.59,4.08-1.25,6.51-2,7.27a2.79,2.79,0,0,1-1.38.89,12.48,12.48,0,0,1-2.36.28c-.94,0-1.46-.36-1.54-1.17v0a.09.09,0,0,1,0-.06c-.25-.72.09-1.07,1-1.06.3,0,.65,0,1.07,0a1.37,1.37,0,0,0,1-.4q.74-.85,1.45-5.59a2.31,2.31,0,0,0,0-1.1c-.08-.18-.26-.26-.53-.25l-1.17.06a29.34,29.34,0,0,1-2.62,5.1,22.67,22.67,0,0,1-3.4,4.21,1.28,1.28,0,0,1-1.79.12c-.45-.33-.66-.64-.63-.94a1.73,1.73,0,0,1,.76-1,22.43,22.43,0,0,0,5.19-7.35l-2.52.13a31.23,31.23,0,0,1-7.05,8.08,1.35,1.35,0,0,1-1.79,0c-.42-.38-.6-.71-.53-1s.36-.6.88-.92a23.66,23.66,0,0,0,5.81-6l-2.7.14a22.6,22.6,0,0,1-3,2.86,1.37,1.37,0,0,1-1.89,0c-.74-.67-.59-1.36.45-2.06a19.85,19.85,0,0,0,4.8-5.2l-2.8.15c-.84,0-1.24-.36-1.2-1.22A1.25,1.25,0,0,1,403,166.79Zm4.44-12.29L418,154a1.88,1.88,0,0,1,1.49.49,1.8,1.8,0,0,1,.48,1.47l-.33,6.38a2.24,2.24,0,0,1-.65,1.54,2.22,2.22,0,0,1-1.54.64L406.9,165a1.92,1.92,0,0,1-1.5-.49,1.83,1.83,0,0,1-.5-1.48l.33-6.37a2.28,2.28,0,0,1,.66-1.54A2.36,2.36,0,0,1,407.45,154.5Zm.35,4.21,9.32-.48.07-1.32c0-.53-.21-.78-.71-.75l-7.78.41a.77.77,0,0,0-.83.82Zm.57,4.11,7.78-.41a.75.75,0,0,0,.79-.82l.08-1.35-9.33.48-.07,1.35Q407.57,162.87,408.37,162.82Z"/><path class="cls-1" d="M444,163.62l11.4-.59c.95-.05,1.4.39,1.35,1.34a1.43,1.43,0,0,1-1.5,1.52l-7.37.38-.55,10.55c0,.55,0,.89.2,1a1.61,1.61,0,0,0,1.09.18l3.62-.19a1.17,1.17,0,0,0,.85-.34,2.72,2.72,0,0,0,.46-1.23,9.24,9.24,0,0,1,.33-1.55,3,3,0,0,1,.71-1.24.88.88,0,0,1,1.06-.27c.66.28.89,1.23.7,2.85a7.18,7.18,0,0,1-1.31,3.52,3.82,3.82,0,0,1-2.7,1l-4.25.22c-1.55.08-2.59-.15-3.1-.7s-.74-1.61-.65-3.18l.55-10.55-5.26.27a35.94,35.94,0,0,1-.87,4.53,19.52,19.52,0,0,1-1.47,3.8,11.44,11.44,0,0,1-2.63,3.43,17.32,17.32,0,0,1-4.08,2.65c-1.33.55-2.21.5-2.66-.17a1.12,1.12,0,0,1,.06-1.48,4.7,4.7,0,0,1,1.75-1.18,13.91,13.91,0,0,0,3.05-2.17,9.12,9.12,0,0,0,2-2.73,16.05,16.05,0,0,0,1.08-3,34.69,34.69,0,0,0,.66-3.54l-6.77.35c-1,.05-1.43-.41-1.38-1.37a1.43,1.43,0,0,1,1.53-1.49l11.15-.58.55-10.46a1.48,1.48,0,0,1,1.59-1.56c1,0,1.45.42,1.4,1.4Zm-9.8-2.43a31.54,31.54,0,0,0-2.06-5c-.47-.92-.2-1.57.83-1.95a1.25,1.25,0,0,1,1.79.5,29.72,29.72,0,0,1,2.45,5.44,1.28,1.28,0,0,1-.1,1,2.22,2.22,0,0,1-1,.69C435,162.34,434.38,162.12,434.16,161.19ZM454.28,155q-1.36,2.61-3.32,5.72a1.42,1.42,0,0,1-1.72.53c-.95-.33-1.17-.91-.66-1.75a50.82,50.82,0,0,0,2.86-5.51,1.56,1.56,0,0,1,2.13-1.08C454.62,153.21,454.86,153.9,454.28,155Z"/><path class="cls-1" d="M467.28,152.35l6.42-.34a1.92,1.92,0,0,1,1.5.5,1.89,1.89,0,0,1,.5,1.5l-.78,15a2.33,2.33,0,0,1-.67,1.56,2.37,2.37,0,0,1-1.56.66l-6.42.33a1.85,1.85,0,0,1-1.5-.5,1.83,1.83,0,0,1-.5-1.49l.78-15a2.27,2.27,0,0,1,2.23-2.21Zm.2,8.1,5.16-.27.25-4.62c0-.52-.23-.77-.75-.74l-3.59.19a.77.77,0,0,0-.83.82Zm5,2.4-5.16.27-.26,4.87c0,.52.23.77.75.74l3.59-.18a.79.79,0,0,0,.83-.83Zm8-11.73,9.67-.5a1.88,1.88,0,0,1,1.49.48,1.85,1.85,0,0,1,.48,1.48L491,175c-.09,1.59-.64,2.64-1.68,3.13a11.36,11.36,0,0,1-3.77.73c-1.18.1-1.9-.23-2.15-1a1.13,1.13,0,0,1,.28-1.36,2.92,2.92,0,0,1,1.7-.46l1.86-.1a.8.8,0,0,0,.83-.83l.34-6.44-8.57.45a18.49,18.49,0,0,1-5.21,9.51c-.9.8-1.67.9-2.31.28s-.55-1.55.57-2.56a15.11,15.11,0,0,0,3.74-6.2,32.82,32.82,0,0,0,1.23-7.57l.49-9.33a2.21,2.21,0,0,1,.64-1.53A2.24,2.24,0,0,1,480.53,151.12Zm-.14,15.3,8.16-.43.26-4.93-8,.42-.06,1C480.68,164,480.56,165.28,480.39,166.42Zm.56-7.68,8-.41.22-4.15c0-.5-.23-.74-.75-.71l-6.43.33a.76.76,0,0,0-.82.8Z"/><path class="cls-1" d="M502.52,156.3a17.86,17.86,0,0,1-1.65,6.76.93.93,0,0,1-1.34.45,1.2,1.2,0,0,1-.68-.49,1,1,0,0,1,.12-.8,17.17,17.17,0,0,0,1.44-5.81c.08-.8.48-1.17,1.18-1.13A.86.86,0,0,1,502.52,156.3Zm19.57,2.36-6.9.36c-.8,0-1.18-.33-1.13-1.13v-.09a21,21,0,0,1-4.13,3.78c-.77.48-1.36.43-1.75-.16a1.32,1.32,0,0,1-.29-1,1.61,1.61,0,0,1,.83-.84,16.51,16.51,0,0,0,3.6-3.29,11.5,11.5,0,0,0-2-1.71c-.27.49-.67,1.17-1.17,2s-.84,1.45-1,1.73a1.57,1.57,0,0,1-.82.62,1.68,1.68,0,0,1-1.1,0l-.12,0,0,.79a54.56,54.56,0,0,1-.74,6.93q.7.87,3.63,4.91a1.26,1.26,0,0,1,.2.84,2.83,2.83,0,0,1-.63.78,1.91,1.91,0,0,1-1.09.72c-.28,0-.56-.21-.83-.68s-.91-1.53-2-3.31a20.9,20.9,0,0,1-3.7,7c-.74.85-1.41,1-2,.32s-.53-1.39.18-2.26a17.88,17.88,0,0,0,3.26-6.74,45.69,45.69,0,0,0,1.15-8.41l.5-9.48a1.31,1.31,0,0,1,1.39-1.39c.88,0,1.3.37,1.25,1.25l-.4,7.73c.84-1.66,1.32-2.63,1.44-2.93a2.11,2.11,0,0,1,1.12-1.23,2.18,2.18,0,0,1,1.65,0l.34.11.57-.66c.31-.35.61-.41.92-.17a16.14,16.14,0,0,1,1.63,1.26,14.56,14.56,0,0,0,1.14-2c.21-.47,0-.69-.47-.67l-2.65.14c-.73,0-1.08-.32-1-1.07a1.11,1.11,0,0,1,1.16-1.19l4.1-.21a1.56,1.56,0,0,1,1.5.59,2.15,2.15,0,0,1,.06,1.89,19,19,0,0,1-2.61,4.87l7-.37a22.64,22.64,0,0,1-3.33-6.75,1.11,1.11,0,0,1,.87-1.55c.77-.22,1.25,0,1.44.74s.48,1.25.78,1.9c.59-.55,1.17-1.12,1.72-1.71a1,1,0,0,1,1.64-.15c.64.53.58,1.09-.18,1.7-1.09.89-1.89,1.51-2.39,1.85.54.82.91,1.38,1.11,1.66q1-.84,2-1.8a1.08,1.08,0,0,1,1.61-.11c.68.51.62,1.08-.19,1.73s-1.62,1.19-2.25,1.62a12.67,12.67,0,0,0,2.5,2c1,.56,1.17,1.27.45,2.14a1.43,1.43,0,0,1-2.06.33,16.19,16.19,0,0,1-3-2.66l0,.81A.61.61,0,0,1,522.09,158.66Zm3.6,17.54-16.72.88c-.82,0-1.21-.35-1.17-1.16a1.21,1.21,0,0,1,1.29-1.29l4.35-.23a15.59,15.59,0,0,0-.87-3.24c-.33-.82-.05-1.4.85-1.74s1.26-.09,1.54.55c.33.84.56,1.48.69,1.93a1.88,1.88,0,0,1-.25,1.32,2.1,2.1,0,0,1-1.13.92l-.58.25,12.13-.64c.82,0,1.21.35,1.16,1.17A1.21,1.21,0,0,1,525.69,176.2Zm-12.28-15,9.73-.51a1.92,1.92,0,0,1,1.5.49,1.8,1.8,0,0,1,.5,1.48l-.17,3.42a2.26,2.26,0,0,1-.67,1.54,2.33,2.33,0,0,1-1.55.65l-9.74.5a1.75,1.75,0,0,1-2-2l.18-3.42a2.21,2.21,0,0,1,.66-1.54A2.36,2.36,0,0,1,513.41,161.21Zm1,5.21,7-.36a.79.79,0,0,0,.83-.83l.07-1.44c0-.53-.22-.78-.74-.75l-7,.37a.78.78,0,0,0-.83.82l-.07,1.45C513.65,166.2,513.9,166.45,514.43,166.42Zm8.54,4.16c-.57,1.22-1,2.06-1.23,2.51a1.19,1.19,0,0,1-1.48.64c-.91-.18-1.18-.68-.8-1.49s.66-1.52,1-2.37a1.38,1.38,0,0,1,1.75-1.06C523.16,169,523.42,169.58,523,170.58Z"/><path class="cls-1" d="M520.81,115l-56.62,3.13a5.6,5.6,0,0,1-5.83-5.81l.35-13.6,62.61-3.46Z"/><path class="cls-1" d="M398.24,108.33l-.34,7a5.59,5.59,0,0,0,5.85,5.92l11.17-.68.89-18.57-12.45,1A5.6,5.6,0,0,0,398.24,108.33Z"/><path class="cls-1" d="M379.35,109.8l-.32,6.65a5.58,5.58,0,0,0,5.84,5.92l3.51-.21a5.62,5.62,0,0,0,5.21-5.4l.63-13.1-9.75.76A5.61,5.61,0,0,0,379.35,109.8Z"/><path class="cls-1" d="M420,102.69l-.56,11.62a5.46,5.46,0,0,0,5.86,5.59l9.84-.53.85-17.81Z"/><path class="cls-1" d="M452.47,100.4l-12.2.86-.58,11.94a5.47,5.47,0,0,0,5.87,5.6l6-.33Z"/><path class="cls-2" d="M345.92,86a1.31,1.31,0,0,0-2,1h0a25.22,25.22,0,0,1-16.42,20A58.65,58.65,0,0,1,320,109l-1.3.27L322,126.13l1.3-.27a75.47,75.47,0,0,0,9.63-2.64,42.18,42.18,0,0,0,26.33-28l.3-1Z"/><path class="cls-1" d="M308.5,122.17l-35.84,2.33a5.69,5.69,0,0,1-6-6l.1-2.4a5.72,5.72,0,0,1,5.45-5.54l35.8-1.27a5.7,5.7,0,0,1,5.82,6l-.06,1.34A5.73,5.73,0,0,1,308.5,122.17Z"/><path class="cls-1" d="M448.4,79.26l-61.86,3.43a5.58,5.58,0,0,1-5.81-6l.23-3.55a5.6,5.6,0,0,1,5.24-5.3l68.07-3.78-.63,9.9A5.62,5.62,0,0,1,448.4,79.26Z"/><path class="cls-1" d="M447.71,98.07l-61.84,3.76a5.58,5.58,0,0,1-5.84-6l.21-3.55A5.62,5.62,0,0,1,385.45,87l68.06-4.14-.58,9.91A5.62,5.62,0,0,1,447.71,98.07Z"/><path class="cls-1" d="M456.9,8,424.3,9.88H424l-8.14.44a3.32,3.32,0,0,0-.44.06L389,11.87a5.62,5.62,0,0,0-5.24,5.4l-.33,6.93h0l-1.12,23.26a4.42,4.42,0,0,0,0,.63c0,.13-.05.25-.06.38l-.42,8.7a5.59,5.59,0,0,0,5.91,5.92l20.62-1.48-1.5,31.12a5.58,5.58,0,0,0,5.9,5.92l8.15-.58a5.63,5.63,0,0,0,5.16-5.39l1.55-32.46,26.83-1.92L455,47.23h0l1.16-24.1a5.07,5.07,0,0,0,0-1,5.66,5.66,0,0,0,.13-.92ZM398.21,34.72h0a5.63,5.63,0,0,1,5.24-5.39L410,29l-.64,13.49-3.62.1A7.38,7.38,0,0,1,398.21,34.72Zm31-6.85,5.38-.3a5.59,5.59,0,0,1,5.82,5.92h0a8.64,8.64,0,0,1-8.28,8.31l-3.6.1Z"/><path class="cls-1" d="M471.05,83l3.43-71.35c.14-2.88,2-5.22,4.4-5.42l18.41-1.56-3.66,76.07Z"/><path class="cls-1" d="M522.17,80.08l-62.7,3.36.68-15.91a5.6,5.6,0,0,1,5.21-5.42l57.71-3.5Z"/><path class="cls-1" d="M477.49,117.4l-13.46.66a5.67,5.67,0,0,1-5.76-6.08l1.88-44.48a5.62,5.62,0,0,1,5.28-5.43l14.43-.68Z"/><path class="cls-2" d="M514.46,132.33a4.9,4.9,0,0,1-7.89-1.74c-4.68-10.44-6.73-25.4-6.08-44.61.53-16,1.24-20.8,2.06-26.5l22-1.37c0,.12-1.7,14.72-2.15,28.81-.53,16.64,1.33,25.58,3,30.19a6.06,6.06,0,0,1-1.49,6.55Z"/><path class="cls-1" d="M517.39,53.11,483.7,55l1-21.18L528.3,32l-6,17.73A5.35,5.35,0,0,1,517.39,53.11Z"/><path class="cls-1" d="M401.35,31.72h0c-1.81,1.28-2.6,3.32-1.85,4.75l1.58,3c.88,1.68,3.53,1.86,5.68.37h0c1.85-1.27,2.67-3.33,1.91-4.78l-1.58-3C406.19,30.36,403.5,30.2,401.35,31.72Z"/><path class="cls-1" d="M437.1,30.2h0c1.81,1.14,2.64,3.19,1.93,4.77l-1.5,3.32c-.84,1.86-3.45,2.33-5.6,1h0c-1.85-1.14-2.71-3.21-2-4.81l1.49-3.32C432.29,29.29,435,28.83,437.1,30.2Z"/><polygon class="cls-1" points="249.8 75.12 221.42 77.54 221.79 63.66 250.17 61.24 249.8 75.12"/><polygon class="cls-1" points="250.29 56.53 221.92 58.95 222.29 45.08 250.66 42.66 250.29 56.53"/><path class="cls-1" d="M262.85,36.9l-43.66,3.21c-3.06.26-5.63-2.45-5.52-5.82l.24-6.93a5.5,5.5,0,0,1,4.8-5.48l44.72-2.75Z"/><path class="cls-1" d="M303.16,30.18l-25.63,4.28.32-11.92a5.23,5.23,0,0,1,5-4.88l14.47-1.07c3.29-.25,6.09,2.16,6,5.17Z"/><path class="cls-1" d="M259.73,98.7l-42.06,3.79a5.4,5.4,0,0,1-5.61-5.79l.37-14,47.85-4.31Z"/><rect class="cls-1" x="193.11" y="47.38" width="63.55" height="14.28" transform="translate(164.4 277.88) rotate(-88.48)"/><path class="cls-1" d="M241.37,123.93l2.77-103.62,19.29-1.18-2.91,109.33-13.59,1.26C243.87,130,241.28,127.31,241.37,123.93Z"/><polygon class="cls-1" points="323.91 44.22 259.95 47.82 260.47 28.36 324.43 24.76 323.91 44.22"/><polygon class="cls-1" points="352 70.43 259.67 76.28 260.12 59.38 356.13 53.62 352 70.43"/><polygon class="cls-1" points="306.32 70.21 289.82 69.77 295.62 40.84 312.11 41.28 306.32 70.21"/><polygon class="cls-1" points="273.59 71.04 290.09 71.48 285.84 42.28 269.34 41.84 273.59 71.04"/><path class="cls-1" d="M357.53,48.81l-8.91.4a2.6,2.6,0,0,1-2.73-2.65h0c0-.22,0-.45,0-.67a18.33,18.33,0,0,0-5.22-10.75,5.82,5.82,0,0,1-1.13-6.4l1.27-2.83a5.48,5.48,0,0,1,9-1.63c4.4,4.49,9.71,11.81,10.25,21.36l0,.31v.32A2.6,2.6,0,0,1,357.53,48.81Z"/><path class="cls-1" d="M359.13,128.7c-6.53-4.28-14.46-21.77-20.72-45.66a128.17,128.17,0,0,1-4-35.82l.72-27.12a5.56,5.56,0,0,0-6-5.72l-7.27.63a5.57,5.57,0,0,0-5.07,5.42l-.7,26.31a146.9,146.9,0,0,0,4.61,41,227.65,227.65,0,0,0,9.59,29.14c5.78,13.85,11.95,22.78,18.86,27.31l.78.51,10-15.54Z"/><path class="cls-1" d="M309.24,92.34l-38,1.64a5.69,5.69,0,0,1-5.86-6l.08-1.94a5.72,5.72,0,0,1,5.38-5.54l38-1.81a5.7,5.7,0,0,1,5.89,6l-.09,2.1A5.72,5.72,0,0,1,309.24,92.34Z"/><path class="cls-1" d="M272.85,124.46h0a7.85,7.85,0,0,1-8.41-8.12l.72-27.13a7.9,7.9,0,0,1,7.41-7.72h0a7.87,7.87,0,0,1,8.2,8.14L280,116.76A7.88,7.88,0,0,1,272.85,124.46Z"/><polygon class="cls-1" points="314.23 121.87 298.22 122.91 299.39 79.05 315.4 78.04 314.23 121.87"/><path class="cls-1" d="M299.34,106.78l-23.19,1.28a5.44,5.44,0,0,1-5.66-5.74h0a5.46,5.46,0,0,1,5.1-5.28l23.19-1.28a5.44,5.44,0,0,1,5.66,5.74h0A5.47,5.47,0,0,1,299.34,106.78Z"/><path class="cls-2" d="M108.33,181.16l1.25-.29a77.49,77.49,0,0,0,8.57-2.45V90.68l-16,0s-6,8.21-11.78,9.1l.14,11.79,6.8-.11v71.12q3.08-.19,6.18-.64C105.13,181.75,106.73,181.49,108.33,181.16Z"/><path class="cls-2" d="M86.56,182.55c1.58.12,3.18.19,4.78.21l0-65.15-14.44.12s-3.83,5.3-9.56,6.19L67,135.85l7.32.13,0,44.67c2.15.51,4.33.94,6.53,1.27C82.75,182.21,84.65,182.4,86.56,182.55Z"/><path class="cls-2" d="M66.49,178.33,66.37,142l-12.06-.09A9.82,9.82,0,0,1,46,147.82v10l6,.3.08,13.48a78.42,78.42,0,0,0,10.64,5.35C64,177.42,65.24,177.89,66.49,178.33Z"/><path class="cls-2" d="M131.12,172.56a77.8,77.8,0,0,0,12.61-8.94l.48-101.89h-17s-6.77,8.67-12.55,9.68l-.17,12.32,9.36.1v92.32c.6-.26,1.2-.5,1.79-.78C127.54,174.5,129.35,173.57,131.12,172.56Z"/><path class="cls-3" d="M179.31,86.5a88.64,88.64,0,0,0-49.26-62.32c.29,4,.44,8,.42,11.91A78.2,78.2,0,0,1,146,161.55c-.75.7-1.52,1.39-2.3,2.07a77.8,77.8,0,0,1-12.61,8.94c-1.77,1-3.58,1.94-5.44,2.81-.59.28-1.19.52-1.79.78-1.88.82-3.78,1.59-5.74,2.27a77.49,77.49,0,0,1-8.57,2.45l-1.25.29c-1.6.33-3.2.59-4.79.82q-3.11.45-6.18.64c-2,.12-4,.17-6,.14-1.6,0-3.2-.09-4.78-.21-1.91-.15-3.81-.34-5.7-.63-2.2-.33-4.38-.76-6.53-1.27a78.39,78.39,0,0,1-7.84-2.32c-1.25-.44-2.5-.91-3.73-1.42A78.28,78.28,0,0,1,115.54,29.68c2.12-3,4.37-5.87,6.72-8.72A88.69,88.69,0,1,0,179.31,86.5Z"/><ellipse class="cls-3" cx="79.21" cy="56.75" rx="10.49" ry="10.31" transform="matrix(0.04, -1, 1, 0.04, 19.24, 133.55)"/><path class="cls-3" d="M116.74,48.38c-2.21,5.08-4.44,10.15-7,15a120.14,120.14,0,0,1-7.91,12.93,128.55,128.55,0,0,1-9.38,11.81A137.84,137.84,0,0,1,81.75,98.83,149,149,0,0,1,70,108.33q-6.14,4.45-12.67,8.3t-13.39,7.09c-2.27,1.07-4.58,2.1-6.9,3.07-1.15.48-2.31,1-3.49,1.42-.16,0-.58.22-.44-.12.07-.18.68-.45.86-.57.54-.38,1.09-.76,1.62-1.16A65.09,65.09,0,0,0,47.2,115.43a65.34,65.34,0,0,0,7.85-11.81c2.76-5.33,4.82-11.37,3.81-17.29-1.13-6.56-5.94-12-11.57-15.34s-12.08-5-18.43-6.62c12.06-2.78,24.55,1.7,35.6,7.32,6.11,3.1,12.91,6.67,19.44,4.61,3.8-1.19,6.8-4.14,9.52-7.1C106,55.61,116,39.83,125.35,23.83c-1.48,8.07-4.76,15.68-8,23.19C117.13,47.47,116.94,47.93,116.74,48.38Z"/><polygon class="cls-3" points="130.57 6.25 131.58 10.89 135.98 12.7 131.87 15.1 131.51 19.84 127.96 16.67 123.34 17.79 125.26 13.44 122.76 9.39 127.5 9.87 130.57 6.25"/></svg>