<svg id="圖層_1" data-name="圖層 1" xmlns="http://www.w3.org/2000/svg" viewBox="0 0 332.76 77.58"><defs><style>.cls-1{fill:#fff;}</style></defs><path class="cls-1" d="M312.61,58.14v0a12.36,12.36,0,1,1-7.4-11.31L308.43,41a18.86,18.86,0,0,0-8.18-1.88h0a19,19,0,1,0,19,19c0-.38,0-.75-.06-1.13Z"/><path class="cls-1" d="M302.55,59.83a2.84,2.84,0,1,1-2.3-4.5l.25,0,2.72-4.92a8.13,8.13,0,0,0-3-.56,8.3,8.3,0,1,0,8.26,8.95Z"/><polygon class="cls-1" points="312.97 38.3 316.61 43.45 329.23 34.52 332.76 39.52 320.14 48.45 323.78 53.59 302.53 57.15 312.97 38.3"/><path class="cls-1" d="M14.48,9.82v50a4.73,4.73,0,0,0,1.65,3.95,7.17,7.17,0,0,0,4.61,1.32H24v2H0v-2H3c2.19,0,3.79-.44,4.78-1.32a5,5,0,0,0,1.48-3.95V20a2.91,2.91,0,0,0-.83-2.14,3.39,3.39,0,0,0-2.47-.82H0v-2H3a13.56,13.56,0,0,0,6.42-1.32,8.79,8.79,0,0,0,3.79-3.95Z"/><path class="cls-1" d="M56.62,9.82v50a4.73,4.73,0,0,0,1.64,3.95,7.21,7.21,0,0,0,4.61,1.32h3.29v2h-24v-2h3q3.28,0,4.77-1.32a5,5,0,0,0,1.48-3.95V20a2.94,2.94,0,0,0-.82-2.14,3.41,3.41,0,0,0-2.47-.82H42.13v-2h3a13.54,13.54,0,0,0,6.41-1.32A8.79,8.79,0,0,0,55.3,9.82Z"/><path class="cls-1" d="M98.75,9.82v50a4.73,4.73,0,0,0,1.65,3.95,7.16,7.16,0,0,0,4.6,1.32h3.3v2h-24v-2h3q3.28,0,4.77-1.32a5,5,0,0,0,1.48-3.95V20a2.9,2.9,0,0,0-.82-2.14,3.39,3.39,0,0,0-2.47-.82H84.27v-2h3a13.61,13.61,0,0,0,6.42-1.32,8.82,8.82,0,0,0,3.78-3.95Z"/><path class="cls-1" d="M140.88,9.82v50a4.73,4.73,0,0,0,1.65,3.95,7.19,7.19,0,0,0,4.61,1.32h3.29v2h-24v-2h3c2.19,0,3.79-.44,4.78-1.32a5,5,0,0,0,1.48-3.95V20a2.91,2.91,0,0,0-.83-2.14,3.38,3.38,0,0,0-2.46-.82H126.4v-2h3a13.56,13.56,0,0,0,6.42-1.32,8.79,8.79,0,0,0,3.79-3.95Z"/><path class="cls-1" d="M163.27,57.22q3-.33,6.58-1V8.17a15.78,15.78,0,0,0-4.61,1l-2.63-3h25.67l4.61-3.62,5.27,5.59h-9.88V52.61l5.27-1v1.32l-5.27,2V65.45q0,3.94.33,7.57L184,76q.33-9.87.33-20.08-6.26,2-11.19,3.79c-3.29,1.21-5.49,2.36-6.58,3.45Zm10.53-49V22.33h10.53V8.17Zm0,16.13V38.13h10.53V24.3Zm0,15.8V55.57l10.53-2V40.1Zm63.53-4a22.46,22.46,0,0,0-4.28,7.9,107.16,107.16,0,0,1-4.61,11.85q3,7.58,3.95,8.72c.66.78,1.2,1.16,1.65,1.16.66,0,1.2-.66,1.64-2l3-8.89,1,.33a96.27,96.27,0,0,0-1.48,11.52,23.21,23.21,0,0,0,.5,6.59c.43,1.31.21,2-.66,2l-1.65-.66a23,23,0,0,1-4.77-4.77,40,40,0,0,1-5.76-10A60,60,0,0,1,209,76.31l-1-.66a60.64,60.64,0,0,0,16.13-20.41q-3-9.54-3.29-23.37H200.13a29.93,29.93,0,0,0-7.9,1l-3-3h31.6q0-16.78-.66-29.3l6.59,3.62-2,2V29.9h4.94l4-3.95,5.92,5.92H224.82a76.38,76.38,0,0,0,2,18.44,74.15,74.15,0,0,0,4.6-17.45ZM190.92,10.81h13.16A22.13,22.13,0,0,0,199.48.6l.65-.66q5.93,3,7.08,4.45a4.41,4.41,0,0,1,1.15,2.47q0,2-2.3,4h5.27l3.29-3.3,4.61,5.27H201.78a29.88,29.88,0,0,0-7.9,1Zm4.61,4.28a65.28,65.28,0,0,1,4.93,5.43c1.32,1.64,2,3,2,4.11a4.8,4.8,0,0,1-1,2.47c-.66,1-1.37,1.32-2.14,1s-1.26-1.59-1.48-3.79a42.52,42.52,0,0,0-3.29-8.89ZM214,40.43V56.89c0,2,.11,4.5.33,7.57L210,67.09V63.8H199.15v2.31l-4.28,2.63q.31-7.9.33-18.27c0-6.91-.12-12-.33-15.3l4.61,2.63h9.87l2.63-3,4.28,4.6Zm-14.81-.66V50H210V39.77Zm0,12.18v9.88H210V52Zm7.9-22.05q4.27-10.53,4.93-16.13l5.6,3.62a12.18,12.18,0,0,0-4.28,4.94q-2.31,3.95-4.61,7.57Zm20.4-22.06c3.07,2.2,5.44,4,7.08,5.44s2.41,2.85,2.31,4.27-.5,2.36-1.16,2.8A3.18,3.18,0,0,1,234,21c-.88,0-1.65-1.2-2.31-3.62a24.79,24.79,0,0,0-4.93-8.56Z"/><path class="cls-1" d="M283.41,47q-29.3,8.24-31.93,10.87l-3.62-5.6A148.64,148.64,0,0,0,264,49.65V39.44h-3a29.88,29.88,0,0,0-7.9,1l-3-3H264V27.27h-8.56V29.9l-4,1.32q.33-5.92.33-15t-.33-13.66l4.28,2.63h21.07l2.3-2.63,4.28,4.28-2.3,1.64q0,15.15.33,20.41l-4.28,1.65V27.27h-9.22v10.2h7.57l3.62-3.62,4.61,5.59h-15.8V49l15.14-3.29ZM255.1,60.51q.33,9.56-1.48,11.36c-1.21,1.2-2.25,1.81-3.12,1.81a3.87,3.87,0,0,1-1.65-.5c-.66-.33-1-.71-1-1.15,0-.66.66-1.54,2-2.63q2.63-2.64,3.95-8.89Zm.33-53.32v18.1H264V7.19Zm2.31,4.6c2.63,2.64,4.16,4.67,4.61,6.09a3.24,3.24,0,0,1-.66,3.46q-1.32,1.32-1.65,1.32-1,0-1-2.64a22.72,22.72,0,0,0-2-7.57Zm2.63,46.75q4.28,4.6,4.94,7.07a3.83,3.83,0,0,1-.82,4c-1,1-1.6,1.48-1.81,1.48-.66,0-1-1.1-1-3.29a24.92,24.92,0,0,0-2.31-8.56Zm7.57-51.35V21q4-6.26,4.61-10.2l3.95,3.29q-2,1.65-8.56,8.56v2.63h9.22V7.19Zm1.65,49.37q4.61,4.62,5.1,6.25a9.77,9.77,0,0,1,.49,2.64,4.19,4.19,0,0,1-1,2.8c-.66.76-1.21,1.15-1.65,1.15s-.77-1-1-3a34.65,34.65,0,0,0-3-9.22Zm7.24-2q6.26,4.6,7.08,6.41a7.64,7.64,0,0,1,.82,2.8,4.39,4.39,0,0,1-1.15,3c-.77.88-1.27,1.32-1.48,1.32-.66,0-1.1-.87-1.32-2.63-.44-2.64-2.09-6-4.94-10.21Zm21.4-14.11q0-33.36-.33-40.54l7.57,3.62-3,2.31v13.5h13.82l3.29-3.3,4.94,5.27H302.51V40.53"/></svg>